<?xml version="1.0" encoding="iso-8859-1"?>
<!-- Generator: Adobe Illustrator 19.0.0, SVG Export Plug-In . SVG Version: 6.00 Build 0)  -->
<svg xmlns="http://www.w3.org/2000/svg" xmlns:xlink="http://www.w3.org/1999/xlink" version="1.1" id="Layer_1" x="0px" y="0px" viewBox="0 0 485.899 485.899" style="enable-background:new 0 0 485.899 485.899;" xml:space="preserve" width="512px" height="512px">
<path d="M459.843,481.056l21.213-21.213l-43.944-43.944h33.337v-30h-25v-60.657l-30-30.001v-75.607  c0-78.331-52.922-146.484-127.5-166.559V45c0-24.813-20.187-45-45-45s-45,20.187-45,45v8.076  c-30.264,8.146-56.961,24.21-78.003,45.658L26.056,4.843L4.843,26.056l95.949,95.949C81.571,149.98,70.45,183.736,70.45,219.634  v75.607l-30,30.001v60.657h-25v30h143.852c7.108,39.736,41.899,70,83.648,70c41.749,0,76.539-30.264,83.648-70h68.089  L459.843,481.056z M215.791,79.729l12.159-2.345V45c0-8.271,6.729-15,15-15s15,6.729,15,15v32.383l12.159,2.345  c66.833,12.891,115.341,71.729,115.341,139.906v88.033l30,30.001v48.231h-8.337L141.151,119.938  C160.844,99.789,186.565,85.365,215.791,79.729z M242.95,455.899c-25.127,0-46.356-16.943-52.904-40h105.808  C289.306,438.956,268.076,455.899,242.95,455.899z M70.45,385.899v-48.231l30-30.001v-88.033c0-27.688,8.001-53.836,21.98-75.991  l242.256,242.256H70.45z" fill="#7b84ae"/>
<g>
</g>
<g>
</g>
<g>
</g>
<g>
</g>
<g>
</g>
<g>
</g>
<g>
</g>
<g>
</g>
<g>
</g>
<g>
</g>
<g>
</g>
<g>
</g>
<g>
</g>
<g>
</g>
<g>
</g>
</svg>
