<svg xmlns="http://www.w3.org/2000/svg" viewBox="0 0 205.79 183.8"><defs><style>.cls-1{isolation:isolate;}.cls-2{fill:#fff;}.cls-3,.cls-4{fill:none;stroke:#fff;stroke-miterlimit:10;}.cls-4{stroke-width:5px;}</style></defs><title>logo</title><g id="Camada_2" data-name="Camada 2"><g id="Camada_1-2" data-name="Camada 1"><g id="Camada_2-2" data-name="Camada 2"><g id="Camada_1-2-2" data-name="Camada 1-2"><g class="cls-1"><path class="cls-2" d="M4.41,19.33V6.11H.5V.5h10l4.12,7.83L18.76.5h6.13V19.33H18.76V11.51l-3.94,7.83h-.34l-3.94-7.83v7.83Z"/><path class="cls-2" d="M24.11,6.11V.5H39.91l6.3,18.83H39.09L37.9,15.94H32.31l-1.19,3.39H24.37L28.71,6.11ZM35.26,4.67l-2.7,7.46h5.19Z"/><path class="cls-2" d="M50.91.5l3.89,5.82L58.63.5h7.43L57.85,12.42v6.91H51.69V12.42L47.31,6.11H43.4V.5Z"/><path class="cls-2" d="M92.77.5V6.11h-6V19.33H80.67V6.11h-6V.5Z"/><path class="cls-2" d="M102.29,7V.5h6.13V19.33h-6.13V12.55H97.36v6.78H91.23V6.11H87.32V.5h10V7Z"/><path class="cls-2" d="M109.73,19.33V6.11h-3.91V.5h20.06V6.11h-10V8.27h6.47v3.29h-6.47v2.17h11.61v5.61Z"/></g><g class="cls-1"><path class="cls-3" d="M4.41,19.33V6.11H.5V.5h10l4.12,7.83L18.76.5h6.13V19.33H18.76V11.51l-3.94,7.83h-.34l-3.94-7.83v7.83Z"/><path class="cls-3" d="M24.11,6.11V.5H39.91l6.3,18.83H39.09L37.9,15.94H32.31l-1.19,3.39H24.37L28.71,6.11ZM35.26,4.67l-2.7,7.46h5.19Z"/><path class="cls-3" d="M50.91.5l3.89,5.82L58.63.5h7.43L57.85,12.42v6.91H51.69V12.42L47.31,6.11H43.4V.5Z"/><path class="cls-3" d="M92.77.5V6.11h-6V19.33H80.67V6.11h-6V.5Z"/><path class="cls-3" d="M102.29,7V.5h6.13V19.33h-6.13V12.55H97.36v6.78H91.23V6.11H87.32V.5h10V7Z"/><path class="cls-3" d="M109.73,19.33V6.11h-3.91V.5h20.06V6.11h-10V8.27h6.47v3.29h-6.47v2.17h11.61v5.61Z"/></g><g class="cls-1"><path class="cls-2" d="M19.49,54.61a11.16,11.16,0,0,0,1.69,5.85,11,11,0,0,0,3.41,3.08,16.83,16.83,0,0,0,6,1.66,18,18,0,0,0,6-1.1,19.82,19.82,0,0,0,4.16-2.79L50,71.56a23.73,23.73,0,0,1-8,5.2,42,42,0,0,1-11.5,1.82q-7.28-.39-11-2.13a37.74,37.74,0,0,1-7.39-4.61,19.91,19.91,0,0,1-5.72-7.21A23.15,23.15,0,0,1,4.3,54.57a23,23,0,0,1,2.06-10,19.91,19.91,0,0,1,5.72-7.21,37.74,37.74,0,0,1,7.39-4.61q3.73-1.74,11-2.13A42.08,42.08,0,0,1,42,32.46a23.73,23.73,0,0,1,8,5.2L40.73,47.92a19.89,19.89,0,0,0-4.16-2.79,18,18,0,0,0-6-1.1,16.85,16.85,0,0,0-6,1.66,11,11,0,0,0-3.41,3.08A11.15,11.15,0,0,0,19.49,54.61Z"/><path class="cls-2" d="M104.91,55.39a25.29,25.29,0,0,1-3.22,13.12,20,20,0,0,1-9.3,8.15,35.36,35.36,0,0,1-14.53,2.73,34.93,34.93,0,0,1-14.5-2.74,19.64,19.64,0,0,1-9.17-8.12,25.79,25.79,0,0,1-3.12-13.14A27.72,27.72,0,0,1,52.85,45a19.62,19.62,0,0,1,5.23-7.52,22.89,22.89,0,0,1,8.44-4.63,37.69,37.69,0,0,1,11.33-1.58A34.85,34.85,0,0,1,92.37,34.1a20.29,20.29,0,0,1,9.32,8.18A25.2,25.2,0,0,1,104.91,55.39Zm-37.19.13a14.85,14.85,0,0,0,2,7.86q2,3.34,8,3.34,4.61,0,6.9-1.75a7.35,7.35,0,0,0,2.86-4,30.16,30.16,0,0,0,.76-5.44,16.69,16.69,0,0,0-2.18-7.87q-2-3.36-8.35-3.36Q67.72,44.28,67.72,55.52Z"/><path class="cls-2" d="M107.15,78.57V45.64H97.4v-14h37.41a30.06,30.06,0,0,1,9.91,1.49,22.24,22.24,0,0,1,7.24,4,19.46,19.46,0,0,1,4.92,6.85,27.35,27.35,0,0,1,2,11.24,34.77,34.77,0,0,1-2.14,10.88A18.18,18.18,0,0,1,152,73.25a20.78,20.78,0,0,1-7.23,4,32.11,32.11,0,0,1-10.7,1.3ZM122.8,43.3V66.88h8.93a8.39,8.39,0,0,0,4.87-1.28,10.22,10.22,0,0,0,3-3.28q1.17-2,1.49-7.19-.1-4.74-1.32-7a9.71,9.71,0,0,0-3.13-3.54,8.83,8.83,0,0,0-5-1.28Z"/><path class="cls-2" d="M161.12,78.57V45.64h-9.74v-14h49.95v14H176.38V51h16.11v8.18H176.38v5.39h28.9v14Z"/></g><g class="cls-1"><path class="cls-3" d="M19.49,54.61a11.16,11.16,0,0,0,1.69,5.85,11,11,0,0,0,3.41,3.08,16.83,16.83,0,0,0,6,1.66,18,18,0,0,0,6-1.1,19.82,19.82,0,0,0,4.16-2.79L50,71.56a23.73,23.73,0,0,1-8,5.2,42,42,0,0,1-11.5,1.82q-7.28-.39-11-2.13a37.74,37.74,0,0,1-7.39-4.61,19.91,19.91,0,0,1-5.72-7.21A23.15,23.15,0,0,1,4.3,54.57a23,23,0,0,1,2.06-10,19.91,19.91,0,0,1,5.72-7.21,37.74,37.74,0,0,1,7.39-4.61q3.73-1.74,11-2.13A42.08,42.08,0,0,1,42,32.46a23.73,23.73,0,0,1,8,5.2L40.73,47.92a19.89,19.89,0,0,0-4.16-2.79,18,18,0,0,0-6-1.1,16.85,16.85,0,0,0-6,1.66,11,11,0,0,0-3.41,3.08A11.15,11.15,0,0,0,19.49,54.61Z"/><path class="cls-3" d="M104.91,55.39a25.29,25.29,0,0,1-3.22,13.12,20,20,0,0,1-9.3,8.15,35.36,35.36,0,0,1-14.53,2.73,34.93,34.93,0,0,1-14.5-2.74,19.64,19.64,0,0,1-9.17-8.12,25.79,25.79,0,0,1-3.12-13.14A27.72,27.72,0,0,1,52.85,45a19.62,19.62,0,0,1,5.23-7.52,22.89,22.89,0,0,1,8.44-4.63,37.69,37.69,0,0,1,11.33-1.58A34.85,34.85,0,0,1,92.37,34.1a20.29,20.29,0,0,1,9.32,8.18A25.2,25.2,0,0,1,104.91,55.39Zm-37.19.13a14.85,14.85,0,0,0,2,7.86q2,3.34,8,3.34,4.61,0,6.9-1.75a7.35,7.35,0,0,0,2.86-4,30.16,30.16,0,0,0,.76-5.44,16.69,16.69,0,0,0-2.18-7.87q-2-3.36-8.35-3.36Q67.72,44.28,67.72,55.52Z"/><path class="cls-3" d="M107.15,78.57V45.64H97.4v-14h37.41a30.06,30.06,0,0,1,9.91,1.49,22.24,22.24,0,0,1,7.24,4,19.46,19.46,0,0,1,4.92,6.85,27.35,27.35,0,0,1,2,11.24,34.77,34.77,0,0,1-2.14,10.88A18.18,18.18,0,0,1,152,73.25a20.78,20.78,0,0,1-7.23,4,32.11,32.11,0,0,1-10.7,1.3ZM122.8,43.3V66.88h8.93a8.39,8.39,0,0,0,4.87-1.28,10.22,10.22,0,0,0,3-3.28q1.17-2,1.49-7.19-.1-4.74-1.32-7a9.71,9.71,0,0,0-3.13-3.54,8.83,8.83,0,0,0-5-1.28Z"/><path class="cls-3" d="M161.12,78.57V45.64h-9.74v-14h49.95v14H176.38V51h16.11v8.18H176.38v5.39h28.9v14Z"/></g><g class="cls-1"><path class="cls-2" d="M88.05,113.33V94.5H100.9a8.84,8.84,0,0,1,4.7,1.07,4.66,4.66,0,0,1,1.95,3.5,4,4,0,0,1-.79,2.95,6.61,6.61,0,0,1-3,1.76v.05a6.08,6.08,0,0,1,1.9.55,5.52,5.52,0,0,1,1.47,1,4.23,4.23,0,0,1,.92,1.31,3.51,3.51,0,0,1,.33,1.44,4.59,4.59,0,0,1-1.14,3.38,5.52,5.52,0,0,1-2.93,1.5,21.68,21.68,0,0,1-4.35.33Zm6.49-14.27v2.86h4.57a1.19,1.19,0,0,0,.79-.4,1.48,1.48,0,0,0,.44-1.06,1.34,1.34,0,0,0-.5-1.08,1.42,1.42,0,0,0-.75-.31Zm0,7v3.48h4.19a3.23,3.23,0,0,0,1.89-.47,1.47,1.47,0,0,0,.81-1.25,1.3,1.3,0,0,0-.66-1.29,3.79,3.79,0,0,0-2-.47Z"/><path class="cls-2" d="M109.29,113.33V94.5h16.15v5.61h-10v2.17h6.47v3.29h-6.47v2.17H127v5.61Z"/><path class="cls-2" d="M150.66,105.35l-2,8h-6.13L136.81,94.5h6.13l2.58,8.14,2.24-8.14h5.63l2.62,8.14,1.75-8.14h6.13l-4.72,18.83H153Z"/><path class="cls-2" d="M162.63,94.5h6.13v18.83h-6.13Z"/><path class="cls-2" d="M187.23,94.5v5.61h-6v13.22h-6.13V100.11h-6V94.5Z"/><path class="cls-2" d="M198.68,101V94.5h6.13v18.83h-6.13v-6.78h-4.93v6.78h-6.13V94.5h6.13V101Z"/></g><g class="cls-1"><path class="cls-3" d="M88.05,113.33V94.5H100.9a8.84,8.84,0,0,1,4.7,1.07,4.66,4.66,0,0,1,1.95,3.5,4,4,0,0,1-.79,2.95,6.61,6.61,0,0,1-3,1.76v.05a6.08,6.08,0,0,1,1.9.55,5.52,5.52,0,0,1,1.47,1,4.23,4.23,0,0,1,.92,1.31,3.51,3.51,0,0,1,.33,1.44,4.59,4.59,0,0,1-1.14,3.38,5.52,5.52,0,0,1-2.93,1.5,21.68,21.68,0,0,1-4.35.33Zm6.49-14.27v2.86h4.57a1.19,1.19,0,0,0,.79-.4,1.48,1.48,0,0,0,.44-1.06,1.34,1.34,0,0,0-.5-1.08,1.42,1.42,0,0,0-.75-.31Zm0,7v3.48h4.19a3.23,3.23,0,0,0,1.89-.47,1.47,1.47,0,0,0,.81-1.25,1.3,1.3,0,0,0-.66-1.29,3.79,3.79,0,0,0-2-.47Z"/><path class="cls-3" d="M109.29,113.33V94.5h16.15v5.61h-10v2.17h6.47v3.29h-6.47v2.17H127v5.61Z"/><path class="cls-3" d="M150.66,105.35l-2,8h-6.13L136.81,94.5h6.13l2.58,8.14,2.24-8.14h5.63l2.62,8.14,1.75-8.14h6.13l-4.72,18.83H153Z"/><path class="cls-3" d="M162.63,94.5h6.13v18.83h-6.13Z"/><path class="cls-3" d="M187.23,94.5v5.61h-6v13.22h-6.13V100.11h-6V94.5Z"/><path class="cls-3" d="M198.68,101V94.5h6.13v18.83h-6.13v-6.78h-4.93v6.78h-6.13V94.5h6.13V101Z"/></g><line class="cls-4" x1="4.51" y1="103.56" x2="80.51" y2="103.56"/><line class="cls-4" x1="136.51" y1="9.56" x2="201.51" y2="9.56"/><g class="cls-1"><path class="cls-2" d="M77.52,122.38,51.41,160.26v22H31.85v-22L5.74,122.38H29.37l12.18,18.48L53.9,122.38Z"/><path class="cls-2" d="M141.25,152.63q0,9.82-4.1,16.74a25.51,25.51,0,0,1-11.87,10.4,45.1,45.1,0,0,1-18.54,3.48q-10.77,0-18.5-3.5A25.05,25.05,0,0,1,76.52,169.4q-4-6.86-4-16.76a35.35,35.35,0,0,1,2.28-13.2,25,25,0,0,1,6.67-9.59,29.23,29.23,0,0,1,10.77-5.91,48.09,48.09,0,0,1,14.46-2,44.45,44.45,0,0,1,18.52,3.54,25.89,25.89,0,0,1,11.89,10.44Q141.25,142.81,141.25,152.63Zm-47.45.17a19,19,0,0,0,2.59,10q2.59,4.27,10.21,4.27,5.88,0,8.81-2.24a9.38,9.38,0,0,0,3.65-5.12,38.49,38.49,0,0,0,1-6.94,21.3,21.3,0,0,0-2.78-10q-2.53-4.29-10.65-4.29Q93.81,138.46,93.81,152.8Z"/><path class="cls-2" d="M161.52,122.38v35.39q-.25,6.05,2.32,8.41t8,2.53a11.31,11.31,0,0,0,7.33-2.57q2.94-2.49,2.78-8.37V122.38h19.48v35.1q-.12,7.46-2.47,11.91a24.17,24.17,0,0,1-5.93,7.44,25.59,25.59,0,0,1-9,4.64,44.85,44.85,0,0,1-12,1.82,52.24,52.24,0,0,1-11.21-1.51,29.09,29.09,0,0,1-9.95-4.37,20,20,0,0,1-6.55-7.67q-2.3-4.68-2.3-12.22V122.38Z"/></g><g class="cls-1"><path class="cls-3" d="M77.52,122.38,51.41,160.26v22H31.85v-22L5.74,122.38H29.37l12.18,18.48L53.9,122.38Z"/><path class="cls-3" d="M141.25,152.63q0,9.82-4.1,16.74a25.51,25.51,0,0,1-11.87,10.4,45.1,45.1,0,0,1-18.54,3.48q-10.77,0-18.5-3.5A25.05,25.05,0,0,1,76.52,169.4q-4-6.86-4-16.76a35.35,35.35,0,0,1,2.28-13.2,25,25,0,0,1,6.67-9.59,29.23,29.23,0,0,1,10.77-5.91,48.09,48.09,0,0,1,14.46-2,44.45,44.45,0,0,1,18.52,3.54,25.89,25.89,0,0,1,11.89,10.44Q141.25,142.81,141.25,152.63Zm-47.45.17a19,19,0,0,0,2.59,10q2.59,4.27,10.21,4.27,5.88,0,8.81-2.24a9.38,9.38,0,0,0,3.65-5.12,38.49,38.49,0,0,0,1-6.94,21.3,21.3,0,0,0-2.78-10q-2.53-4.29-10.65-4.29Q93.81,138.46,93.81,152.8Z"/><path class="cls-3" d="M161.52,122.38v35.39q-.25,6.05,2.32,8.41t8,2.53a11.31,11.31,0,0,0,7.33-2.57q2.94-2.49,2.78-8.37V122.38h19.48v35.1q-.12,7.46-2.47,11.91a24.17,24.17,0,0,1-5.93,7.44,25.59,25.59,0,0,1-9,4.64,44.85,44.85,0,0,1-12,1.82,52.24,52.24,0,0,1-11.21-1.51,29.09,29.09,0,0,1-9.95-4.37,20,20,0,0,1-6.55-7.67q-2.3-4.68-2.3-12.22V122.38Z"/></g></g></g></g></g></svg>