<svg xmlns="http://www.w3.org/2000/svg" viewBox="0 0 223.532 178.663"><title>St. Louis Blues light logo</title><path d="M223.532 0H38.828c12.24 19.08 16.315 25.357 5.897 25.068L29.38 0H0l66.74 109.027c-.904-.04-1.808-.092-2.686-.092-27.362 0-48.813 15.32-48.813 34.87s21.44 34.857 48.814 34.857c27.335 0 48.787-15.306 48.787-34.857 0-4.94-1.388-9.723-4.1-14.192l-14.953-24.426s12.043 2.424 21.072-1.743l-4.352-5.635s18.346 1.703 35.263-3.343l-5.726-6.08s25.737-.655 43.558-23.522h-1.77s13.29-6.408 18.87-20.587H199s8.49-6.33 11.387-19.368h-2.516c.015-.012 13.565-9.54 15.662-24.91z" fill="#002654"/><path d="M218.972 3.224H44.802c14.272 21.622 10.065 25.108-1.86 25.108L27.572 3.224H5.74l67.054 109.55c-2.857-.38-5.78-.615-8.74-.615-25.567 0-45.59 13.89-45.59 31.646 0 17.743 20.01 31.634 45.59 31.634 25.552 0 45.562-13.904 45.562-31.634 0-4.35-1.22-8.557-3.63-12.5l-18.988-31.02s13.21 4.352 22.474 1.456l-5.858-7.535s21.805 1.808 36.39-1.14l-6.945-7.365s32.484-.3 44.593-20.364h-5.57s15.32-2.136 23.05-18.674h-5.647s13.183-6.067 16.734-19.88h-6.12c.015 0 13.695-9.08 18.872-23.56zM101.4 171.298h1.468v4.403h.524V171.3h1.546v-.524H101.4v.524zm6.356 3.486l-1.27-4.01h-.853v4.927h.537v-4.192l1.324 4.193h.524l1.324-4.192v4.193h.524v-4.926h-.852l-1.258 4.01z" fill="#FFF"/><path d="M215.316 5.478H48.853c9.854 15.004 11.74 26.077-7.207 25.03l-15.32-25.03H9.79l67.577 110.377a62.507 62.507 0 0 0-13.3-1.44c-23.89 0-43.324 13.182-43.324 29.392 0 16.184 19.434 29.367 43.323 29.367 23.876 0 43.31-13.183 43.31-29.367 0-3.944-1.115-7.745-3.29-11.322l-22.04-35.96s13.877 4.863 23.47 3.84c0 0-4.364-5.385-6.29-8.726 0 0 15.79 1.9 36.404.09l-7.745-8.19a91.3 91.3 0 0 0 2.03.027c33.456 0 43.494-17.14 43.494-17.14h-9.082s22.58-5.753 27.4-18.674h-8.373s17.86-8.74 19.617-18.674h-10.195c0-.028 17.82-10.092 22.54-23.602z" fill="#FCB514"/><path d="M53.125 7.876c13.117 21.425-.013 26.26-12.88 24.95l-15.28-24.95H14.047L82.53 119.733c-5.57-1.86-11.846-2.922-18.477-2.922-22.605 0-40.938 12.083-40.938 26.996 0 14.9 18.32 26.982 40.938 26.982 22.58 0 40.91-12.082 40.91-26.982 0-3.564-1.06-6.958-2.947-10.077L76.62 92.266s16.393 5.7 23.968 5.7c0 0-3.446-4.403-5.53-9.134 0 0 19.643 2.11 35.368.89l-8.557-9.067s2.554.498 8.032.498c27.69 0 38.317-12.344 38.317-12.344H85.91l-1.205-1.98h68.286s27.834-5.32 34.557-16.72H74.47l-1.205-1.953h104.06s19.382-9.343 22.16-16.72H63.03l-1.205-1.954H187.26s18.28-9.527 24.23-21.61H53.124v.003z" fill="#002F87"/></svg>