<svg xmlns="http://www.w3.org/2000/svg" viewBox="0 0 246.445 234.518"><title>Pittsburgh Penguins light logo</title><path d="M229.557 34.905H213.68a14.08 14.08 0 0 0-3.328-5.243c-4.62-4.62-10.828-5.362-14.423-1.768a7.519 7.519 0 0 0-1.71 2.688c-1.054-.787-2.39-1.485-3.995-2.11-2.228-4.678-5.377-11.317-12.462-11.317-2.525 0-4.798.787-6.565 1.678C165.955 14.69 154.65 6.95 143.096 6.95c-12.67 0-30.226 11.615-35.38 11.615C103.973 18.567 95.55 0 82.496 0c-7.027 0-14.14 4.753-22.608 9.877-8.08 4.842-10.234 10.694-12.566 16.873-.802 2.006-4.322 5.69-6.773 8.155H0l69.053 120.09H21.775L6.715 182.1h69.364c2.376 0 5.02-.816 7.38-2.064l31.312 54.482 30.494-53.01h25.384v-14.87h-1.708c-.015-5.168-3.936-10.797-5.882-13.278l-.37-2.154 5.836-10.145 33.94-12.52c5.525-2.035 8.065-6.98 9.268-10.828 0 0 3.743-.03 7.144-3.95 2.39.608 5.436 1.247 7.798 1.247 5.14 0 10.53-2.927 11.927-8.408 0 0 5.436-3.342 7.843-13.62l-42.258-13.977 25.37-44.1z" fill="#FFF"/><path d="M196.642 86.92l5.303 1.754-.03 3.416c-2.822-.104-5.095-.64-5.095 7.62 0 6.164 1.173 8.154 1.173 9.892 0 2.956-.253 3.67-9.52 3.67 0 0-1.457-1.77-6.522-3.73 0 0-.103-.474-.31-1.336l39.256-68.28H209c.89-1.693.015-4.5-2.183-6.714-2.525-2.51-5.808-3.297-7.338-1.768-.7.698-.922 1.753-.714 2.94l-4.872 5.125c.12-.773.386-4.843-7.278-7.04-2.302-4.576-4.248-10.294-8.838-10.294-3.758 0-7.01 2.852-7.01 2.852s-14.022-13.056-27.658-13.056c-11.853 0-28.177 11.615-35.38 11.615-7.664 0-14.452-18.567-25.22-18.567-5.81 0-12.64 4.65-20.008 9.15-7.367 4.47-8.734 9.952-10.53 14.437-1.19 2.97-4.962 6.966-9.36 11.303H8.675l68.964 119.925a7.714 7.714 0 0 1-1.5.163H24.746l-9.49 17.08h60.853c2.583 0 6.133-1.544 7.886-3.46l.965-1.04 29.84 51.897 27.584-47.96h23.26v-4.843h-5.585l-.98-3.104h.846l4.025-1.872c0-4.65-5.6-11.185-5.6-11.185l-.92-5.212 7.65-13.28 35.647-13.16c6.313-2.33 7.026-11.54 7.026-11.54s5.808 2.733 8.986-4.352c0 0 6.445 2.065 9.936 2.065 3.03 0 7.278-1.633 7.278-6.193 0 0 4.664-2.807 6.21-7.605l-41.99-13.918-1.532 4.607z"/><g fill="#FCB514"><path d="M143.423 131.57c0-.728-10.917-3.624-15.21-5.273-3.95 1.545 1.16 2.332 1.16 7.427 0 3.015-1.486 6.55-1.486 6.55l-2.17.624s-4.35 8.02-7.13 6.833c-3.995 7.027-5.614 8.63-11.956 8.63-2.034 0-3.816-.578-5.39-1.573l-13.815 15.06 27.345 47.576 23.542-40.92H121.38c0-4.368 2.777-7.948 2.777-7.948 0-6.95 4.278-8.407 7.47-8.704 6.744-.593 9.507-.014 9.507-3.31 0-2.333-.208-5.096-.208-5.096h2.495c0-9.075-2.554-11.303-2.554-15.923.002-1.78 2.557-2.524 2.557-3.95zm10.843 17.2l5.288-9.224-5.912 2.896.624 6.328zm17.75-93.62l-1.248-2.792c-6.43 1.084-12.18-2.17-13.828-3.03-1.634-.832.163-4.426.163-4.426s-.446-.772-1.47-1.485h-6.714c-1.264 1.13-1.56 2.882-.536 3.95 7.13 7.398 12.863 15.344 17.423 22.994l7.456-7.827-1.247-7.383zm-30.568 115.9l1.44-2.495h-2.36l.92 2.495zm58.774-127.62l-.95 1.07c3.905 4.62 2.286 9.328 2.286 9.328 0 3.565-1.886 3.505-1.886 3.505 0 8.303-4.352 6.833-4.352 6.833 0 10.917-12.03 6.506-12.03 6.506a15.93 15.93 0 0 1-4.932-1.44l-8.154 9.09c5.288 10.277 8.437 19.412 10.145 25.1l34.488-59.99h-14.616zM92.165 135.923c-2.198-5.317-1.233-6.52-1.233-6.52s-7.07-5.81-4.976-13.042c0 0-18.21-26.394-18.21-42.05 0-8.095 3.92-7.308 3.92-13.932 0-5.436-3.712-9.49-6.386-9.49-3.06 0-12.596 6.297-26.558 14.525l5.273-12.12L31.28 66.35s-2.48-12.744 4.37-19.59c1.13-1.115 2.258-2.23 3.387-3.328h-24.3L81.04 158.738c1.218-.58 2.332-1.292 3.104-2.08L94.6 146.113c-1.678-3.907-2.435-7.962-2.435-10.19z"/><path d="M131.288 171.66h2.302l.995-3.105h-5.05l1.753 3.104z"/></g><g fill="#FFF"><path d="M146.943 168.555l-1.797 3.104h7.323l.875-3.105h-6.402zm80.12-71.578l-1.828 2.525 4.68 1.545-.655-3.327-2.198-.743zm-17.914-5.926l-1.724 2.54 12.06 4.01-.073-3.163-10.264-3.386z"/><ellipse transform="rotate(-13.455 226.668 105.76)" cx="226.687" cy="105.767" rx="2.792" ry="1.56"/><ellipse transform="rotate(-37.936 129.16 163.876)" cx="129.161" cy="163.882" rx="2.792" ry="1.56"/><path d="M85.644 158.158c-2.198 2.228-6.387 3.98-9.52 3.98h-.313l-5.807 12.834h6.09c2.005 0 4.96-1.307 6.313-2.792l16.903-18.433-3.848-5.48-9.818 9.89zM18.85 174.97h8.287l7.13-12.832H25.98l-7.13 12.833zm136.203-6.415l-1.352 4.738h-13.174l-1.738-4.738h-2.495l-1.5 4.738h-4.456l-2.688-4.738h-1.427c-.43.49-2.406 2.882-3.06 6.313h40.832v-1.56h-5.154l-1.53-4.738h-2.257v-.015zm48.48-76.242l2.26.743 2.702-3.95L221 93.248l.15 4.886 2.466.817 2.822-3.906 4.218 1.396 1.025 5.184 1.74.58c.86-.595 3.192-2.363 4.56-4.992L199.198 84.38l-.49 1.5 4.887 1.62-.06 4.81zm-81.692 24.255l35.5-37.297c-12.98-18.015-31.904-34.25-49-34.25-15.24 0-25.533 11.214-25.533 23.082 0 21.374 19.205 37.995 39.034 48.466zm9.88 4.71c11.97 5.153 23.007 7.886 28.8 7.886 5.346 0 12.67-1.485 12.67-13.086 0-7.605-4.115-18.314-10.725-29.127l-30.746 34.327zM35.632 49.564c-2.48 2.792-2.792 10.873-2.792 10.873l20.2-17.393-8.094 14.898s13.665-6.21 14.913-9.313c0 0-2.808-6.833-9.017-13.056 0 0-12.715 11.2-15.21 13.99zm27.79-23.304c0-2.197 3.104-4.41 3.49-5.465 0 0-2.004-2.718-4.84-1.352-.432 6.194-2.02 9.135-2.72 12.893 2.318 1.916 1.546-2.91 4.873-2.91 1.114 0 2.733 1.38 2.733 2.97 0 1.857-1.01 2.837-1.01 2.837l2.33-.193s.996-.995.996-2.986c.014-4.516-5.853-4.605-5.853-5.793zm112.04 36.91l-57.097 60.008c-2.08 2.17 3.4 5.97 5.332 3.758l54.675-61.017c2.005-2.244-.802-4.858-2.91-2.75zm-71.238 64.835s.847-3.12-1.59-3.12c-4.99 0-9.772 4.13-9.772 6.254 0 1.098.446 2.064.446 2.064s6.504-6.253 10.915-5.2zm9.774-.133c0-2.17-1.887-2.525-3.937-2.525s-3.12 1.38-3.12 2.243c0 2.243 2.288 4.694 3.298 4.694.565.014 3.76-1.754 3.76-4.412zm3.103.742c-1.263 0-1.975 1.515-1.975 4.114 0 .86 1.07 1.515 1.693 1.515.417 0 1.382-.95 1.382-3.892 0-.904-.312-1.736-1.1-1.736zm4.605 2.525c-2.17 0-1.38 4.826-1.38 6.43 0 1.574-.61 2.39-.61 2.39.446.803.386 3.046 1.842 3.046.832 0 2.035-1.248 2.035-4.367 0-4.693.073-7.5-1.887-7.5zm3.743 1.247l-.31 2.867 1.945.312.505-1.65c-.535-.296-.996-1.84-2.14-1.53zm-30.627 4.486c1.07 12.313 8.466 17.557 8.466 17.557l1.455-.758s-3.713-7.055-7.783-20.156l-2.14 3.357zm5.11-4.99c3.238 13.248 7.204 20.987 8.867 21.417 0 0 1.13-1.916 1.13-13.353 0 0-2.838-12.016-9.997-8.065zm12.863 4.99c.594 13.56-1.574 13.323-1.574 15.403 0 3.372 5.763-.936 5.763-9.49-.016-10.117-4.19-5.913-4.19-5.913zM89 115.855c-3.83 5.303 2.452 10.828 2.452 10.828s2.302.163 3.58-1.114c0 0-1.976-7.234-6.03-9.715zm9.18 4.902c0-.772-1.084-.683-1.084-6.313 0-4.47-5.035-2.792-5.035-.416s4.086 5.303 4.086 7.04c0 0 2.034.758 2.034-.31zm3.996-2.94c0-8.972-3.075-7.428-3.075-4.204 0 3.594 2.02 5.243 3.076 4.203zm2.955-6.55c-1.113 2.465-.31 6.12-.31 8.644 0 2.615 1.737 2.526 2.554 2.08-.995-1.99 1.708-8.838-2.243-10.724zm3.997 1.336c-.52 3.193.49 8.882.49 8.882s2.065.876 2.778-.208c-.163-1.13-.163-3.67-.163-5.17 0-3.83-3.105-3.504-3.105-3.504zm5.704 2.955c-.786 4.96.922 7.575.922 7.575.624-.356 1.084-.12 1.084-4.322 0-4.187-2.005-3.252-2.005-3.252zm75.232-74.177c3.535-1.796-.163-6.43-2.688-4.99-10.5 6.818-11.615 17.245-11.615 17.245s.935 1.53 3.46 1.114c0 0 5.614-10.814 10.842-13.37zm-8.2 13.458s.254 1.248 1.828 1.248c2.986 0 9.046-6.43 9.046-11.66 0-1.07-1.59-1.114-1.59-1.114-5.54 3.58-9.283 11.526-9.283 11.526zm13.86-12.462c3.757 0 6.713-3.892 6.713-4.708s-.832-1.38-2.302-1.38-5.377 4.217-5.377 5.406c-.015.252.178.682.965.682zm-21.048 18.82s1.084-.803 2.882-.7c-1.13-3.58-3.15-2.702-3.15-2.702-.8 1.203.268 3.4.268 3.4zm14.245 9.357c1.306-5.66-4.487-11.54-4.487-11.54-4.085-.313-4.203 1.128-4.203 1.128s2.91 10.413 8.69 10.413zM187.477 57.2s1.366 8.778 5.317 8.778c.372-1.35-1.232-8.778-5.317-8.778zm3.49-3.06s2.273 6.52 4.694 6.52c0 0 .92-4.336-3.18-7.842-1.276 0-1.514 1.322-1.514 1.322zm8.927 1.708c0-3.164-5.065-8.75-5.065-8.75l-1.218 2.437 4.887 7.338c0 .015 1.395.698 1.395-1.025zm-3.936-10.783l4.59 8.05s-.12-4.59-3.58-8.763c0 0-1.01-.12-1.01.713zm-26.648 5.392s-5.72-3.015-10.22-4.293l-.31.92c.014.016 2.495 3.774 10.53 3.373zm2.66-1.322c.415.178 1.692-1.144.816-1.723-1.055-.683-9.075-5.124-11.526-5.822-1.367 1.396-.61 2.243-.61 2.243l11.32 5.302zm1.93-3.67c.64.343 1.678-1.722 1.01-2.168-3.98-2.644-7.887-5.14-12.3-7.13-1.098 1.47-.742 2.778-.742 2.778l12.032 6.52zm3.09-4.782c0-2.065-9.016-9.016-10.427-9.016-1.41 0-2.05 1.738-2.05 1.738l11.437 8.17c.37.267 1.04-.654 1.04-.892zm2.94-2.673l-8.377-9.595c-1.114-1.263-3.045 1.13-3.045 1.13l9.476 9.282c.877.846 2.407-.372 1.946-.817zm2.243-3.58l-7.04-9.58a2.136 2.136 0 0 0-2.154 1.53l7.665 8.154c.98 1.04 1.53-.104 1.53-.104zm.104-5.095l-2.214-4.753c-.223-.46-1.768-.386-1.768.52-.014.683 1.605 4.233 3.98 4.233zm-40.015 183.38c0-2.6-2.11-4.695-4.708-4.695-2.584 0-4.694 2.11-4.694 4.694s2.124 4.708 4.694 4.708a4.701 4.701 0 0 0 4.708-4.708zm-8.393 0a3.684 3.684 0 0 1 3.684-3.685c2.05 0 3.698 1.65 3.698 3.684a3.68 3.68 0 0 1-3.698 3.698 3.687 3.687 0 0 1-3.684-3.698z"/><path d="M139.502 215.402l-1.055-2.273a1.618 1.618 0 0 0 1.055-1.516c0-.89-.728-1.574-1.604-1.574h-2.258v5.362h1.01v-2.183h.728l1.01 2.182h1.114zm-1.62-3.193h-1.247v-1.16h1.248c.327 0 .594.267.594.58 0 .326-.253.58-.594.58z"/></g></svg>